<svg xmlns="http://www.w3.org/2000/svg" pointer-events="none" class="leaflet-zoom-animated" width="1140" height="632" viewBox="-95 -53 1140 632" style="transform: translate3d(-95px, -53px, 0px);"><g><path class="leaflet-interactive" stroke="black" stroke-opacity="1" stroke-width="2" stroke-linecap="round" stroke-linejoin="round" fill="#fff" fill-opacity="0.2" fill-rule="evenodd" d="M489 467L498 467L500 464L512 457L515 459L513 461L517 462L519 459L521 459L522 457L524 458L526 456L526 453L528 451L526 445L527 444L522 433L524 429L522 423L524 419L530 419L533 413L535 413L535 411L542 405L544 399L542 398L542 396L540 396L545 389L551 389L554 386L551 378L554 373L555 375L562 375L567 373L569 375L572 374L572 376L571 375L568 378L566 378L567 385L571 385L573 389L571 390L573 392L568 396L575 402L576 401L576 403L587 401L590 395L593 394L597 396L597 398L599 397L599 403L601 404L599 405L600 408L603 406L607 406L613 409L634 404L631 394L628 391L620 393L619 388L616 385L614 387L612 386L610 381L613 378L613 376L619 376L622 370L631 378L635 380L635 378L631 366L629 364L624 364L624 362L620 364L617 363L615 361L615 356L613 354L614 350L607 351L604 349L604 345L601 344L601 339L604 336L606 336L606 334L609 334L609 330L610 331L614 329L613 327L615 323L609 319L610 318L608 318L611 317L612 314L614 314L615 309L617 307L627 313L628 312L629 315L632 317L633 315L641 312L643 314L643 317L645 318L645 321L648 323L658 321L661 318L668 304L669 305L669 303L672 300L669 297L669 295L672 292L675 293L677 291L679 291L681 294L684 293L687 290L685 289L685 287L689 285L687 282L690 279L688 278L693 274L693 268L698 268L698 266L704 261L703 257L698 254L696 250L699 249L698 246L702 246L699 242L704 241L704 239L702 238L698 240L695 238L693 240L689 240L687 243L683 241L676 233L671 234L668 228L664 231L664 233L662 233L658 229L658 224L655 221L646 221L636 225L634 223L628 222L625 219L626 218L622 216L618 217L616 220L615 219L611 222L609 221L608 216L605 213L603 215L605 220L600 224L598 223L595 226L593 224L588 226L585 223L579 223L567 215L572 210L569 209L571 206L568 199L572 198L569 198L564 192L564 188L562 185L552 185L547 183L544 184L543 179L540 182L531 179L532 176L530 174L530 170L532 169L528 164L525 164L526 163L524 160L515 164L515 166L513 166L515 167L515 169L509 169L507 173L499 173L503 179L502 180L505 181L503 183L505 182L504 185L509 189L509 193L507 195L503 195L500 198L500 202L498 200L496 203L492 203L490 207L488 206L489 202L487 202L487 200L490 199L492 193L489 187L489 189L487 189L487 192L483 196L485 202L482 207L478 202L474 203L474 205L471 200L466 202L468 209L466 213L470 217L468 223L465 223L460 226L452 223L453 224L451 228L449 228L443 221L442 222L443 221L438 220L436 226L433 224L434 217L426 209L425 213L424 212L422 214L423 215L421 220L417 219L410 214L407 215L403 209L394 206L391 202L392 201L390 199L391 197L389 195L389 191L385 187L387 186L378 177L379 171L376 168L372 169L364 164L359 164L358 166L355 167L356 170L354 174L346 176L345 179L347 181L346 186L350 188L351 192L357 195L353 198L352 202L349 205L351 209L344 214L347 221L351 225L353 225L353 227L357 229L358 228L372 235L372 240L379 248L378 253L380 257L383 260L383 262L394 272L390 277L386 274L385 279L391 287L390 290L396 295L395 303L397 309L397 318L400 326L397 335L400 343L399 344L402 361L401 369L404 379L403 382L411 392L410 386L412 383L410 379L414 375L415 371L417 371L417 369L421 366L422 372L429 377L429 380L432 382L431 384L433 384L435 386L434 387L436 388L430 392L436 400L435 401L440 403L440 407L444 402L448 404L450 400L452 400L452 405L455 407L455 409L457 409L456 411L459 417L461 418L463 425L467 427L466 433L475 439L473 442L475 444L477 441L478 442L475 450L482 455L482 461L484 461L488 466zM631 316L631 316zM654 321L654 321zM609 317L609 317z" id="四川省"/><path class="leaflet-interactive" stroke="#333" stroke-opacity="1" stroke-width="1" stroke-linecap="round" stroke-linejoin="round" stroke-dasharray="1,6" fill="#eee" fill-opacity="0.5" fill-rule="evenodd" d="M557 312L561 315L563 315L565 312L566 315L573 320L574 317L581 314L582 312L586 312L585 310L587 310L587 303L581 293L575 291L575 289L573 288L570 290L563 290L564 288L559 283L555 275L555 271L552 270L545 274L543 287L536 294L533 292L526 295L532 303L528 313L529 316L533 316L535 314L537 315L539 320L541 320L547 315L549 315L548 314L551 311L555 312L557 310L556 311zM562 285L562 285zM541 319L541 319zM566 313L566 313z" id="成都市"/><path class="leaflet-interactive" stroke="#333" stroke-opacity="1" stroke-width="1" stroke-linecap="round" stroke-linejoin="round" stroke-dasharray="1,6" fill="#eee" fill-opacity="0.5" fill-rule="evenodd" d="M564 354L567 353L566 351L573 352L572 353L575 355L581 353L580 355L582 357L582 361L586 361L588 359L593 363L599 363L599 360L597 360L599 354L592 347L592 343L592 345L584 344L582 345L582 347L580 347L578 344L576 344L574 339L572 338L569 340L567 337L564 337L564 341L560 345L564 347L561 348L563 349L563 354zM563 343L563 343zM564 342L564 342z" id="自贡市"/><path class="leaflet-interactive" stroke="#333" stroke-opacity="1" stroke-width="1" stroke-linecap="round" stroke-linejoin="round" stroke-dasharray="1,6" fill="#eee" fill-opacity="0.5" fill-rule="evenodd" d="M489 467L492 460L492 455L494 453L495 454L496 452L493 444L494 443L492 447L487 440L485 440L484 437L487 434L488 430L484 428L483 423L481 421L478 425L475 426L475 428L468 427L466 433L475 439L473 442L475 444L477 441L478 442L475 450L482 455L482 461L484 461L488 466zM500 440L499 439L501 439L502 434L501 429L499 427L496 431L494 429L492 430L490 424L490 428L486 435L484 436L485 440L487 440L490 444L493 443L494 445L496 443L498 447L500 441zM501 439L499 439L501 439z" id="攀枝花市"/><path class="leaflet-interactive" stroke="#333" stroke-opacity="1" stroke-width="1" stroke-linecap="round" stroke-linejoin="round" stroke-dasharray="1,6" fill="#eee" fill-opacity="0.5" fill-rule="evenodd" d="M604 349L601 351L597 358L599 362L596 363L598 367L598 371L596 374L598 378L597 381L601 382L602 387L602 392L600 392L596 397L599 397L600 399L600 408L603 406L607 406L613 409L634 404L631 394L628 391L620 393L619 388L616 385L614 387L612 386L610 381L613 378L613 376L619 376L622 370L635 380L631 366L629 364L624 364L624 362L620 364L617 363L615 361L615 356L613 354L614 350L607 351L606 349zM598 394L598 394zM603 350L603 350zM598 381L598 381z" id="泸州市"/><path class="leaflet-interactive" stroke="#333" stroke-opacity="1" stroke-width="1" stroke-linecap="round" stroke-linejoin="round" stroke-dasharray="1,6" fill="#eee" fill-opacity="0.5" fill-rule="evenodd" d="M596 297L591 295L589 291L590 290L585 287L585 284L583 283L584 282L581 278L583 276L581 276L575 270L570 272L565 267L563 267L564 265L561 260L556 263L556 266L554 266L552 269L556 273L556 278L559 280L559 283L564 287L563 289L575 289L575 291L581 293L586 300L585 301L586 302L588 300L590 304L593 304L596 298zM587 289L587 289zM587 289L587 289zM588 289L588 289zM583 281L583 281z" id="德阳市"/><path class="leaflet-interactive" stroke="#333" stroke-opacity="1" stroke-width="1" stroke-linecap="round" stroke-linejoin="round" stroke-dasharray="1,6" fill="#eee" fill-opacity="0.5" fill-rule="evenodd" d="M605 267L603 263L601 263L602 261L599 260L601 258L597 255L598 253L596 249L598 249L600 245L598 241L599 238L594 237L590 239L589 236L583 233L583 229L578 225L579 223L577 221L573 220L559 209L557 215L559 218L561 216L564 223L564 228L563 231L563 228L560 224L556 224L553 226L556 232L555 235L559 239L563 240L564 237L567 241L564 241L563 244L554 243L552 245L553 246L551 251L556 251L558 254L563 255L563 266L570 272L574 272L575 270L577 271L577 273L580 274L580 276L582 276L582 280L584 282L583 283L587 289L588 288L591 294L594 296L598 296L599 293L596 288L598 282L602 282L602 280L604 284L606 284L609 287L614 285L614 281L610 275L611 271L608 272L606 270L607 269L605 269L606 268z" id="绵阳市"/><path class="leaflet-interactive" stroke="#333" stroke-opacity="1" stroke-width="1" stroke-linecap="round" stroke-linejoin="round" stroke-dasharray="1,6" fill="#eee" fill-opacity="0.5" fill-rule="evenodd" d="M605 267L608 265L611 266L614 259L619 263L621 262L620 261L624 261L627 258L627 255L629 255L629 257L631 257L634 254L635 256L636 255L638 251L637 250L640 247L639 246L641 246L641 240L648 237L645 235L644 225L642 222L636 225L634 223L628 222L624 216L618 217L616 220L615 219L611 222L609 221L608 216L605 213L603 215L605 220L600 224L598 223L595 226L593 224L588 226L585 223L579 223L578 225L583 229L583 233L585 235L590 236L591 239L593 237L599 238L598 241L600 245L599 249L597 249L597 255L601 258L599 260L601 259L601 263L603 263L604 265zM636 252L637 252z" id="广元市"/><path class="leaflet-interactive" stroke="#333" stroke-opacity="1" stroke-width="1" stroke-linecap="round" stroke-linejoin="round" stroke-dasharray="1,6" fill="#eee" fill-opacity="0.5" fill-rule="evenodd" d="M593 304L593 308L596 312L604 313L610 317L612 316L612 314L614 314L615 309L617 307L623 310L621 305L619 307L619 305L618 306L619 303L617 301L616 293L602 280L602 282L596 285L599 296L596 297L593 304zM594 309L594 309zM593 307L593 307zM597 312L597 312z" id="遂宁市"/><path class="leaflet-interactive" stroke="#333" stroke-opacity="1" stroke-width="1" stroke-linecap="round" stroke-linejoin="round" stroke-dasharray="1,6" fill="#eee" fill-opacity="0.5" fill-rule="evenodd" d="M574 322L574 331L567 337L569 339L574 338L576 344L578 344L580 347L582 347L583 344L585 345L587 343L588 345L592 345L592 343L592 347L599 354L605 347L603 344L601 344L600 341L604 336L604 332L602 330L595 330L593 328L594 327L590 324L585 329L581 325L581 327L574 323zM603 350L603 350zM602 350L602 350zM603 350L603 350zM588 327L588 327z" id="内江市"/><path class="leaflet-interactive" stroke="#333" stroke-opacity="1" stroke-width="1" stroke-linecap="round" stroke-linejoin="round" stroke-dasharray="1,6" fill="#eee" fill-opacity="0.5" fill-rule="evenodd" d="M564 354L562 351L563 350L561 349L564 347L560 345L564 341L564 337L567 338L560 332L561 331L559 329L557 329L551 335L548 333L550 329L547 326L544 329L543 328L542 331L541 330L540 332L536 332L536 336L538 335L535 342L532 345L528 344L525 346L527 350L527 352L525 352L525 358L523 360L525 364L525 372L528 373L531 367L534 368L537 371L534 378L536 378L538 382L544 375L546 376L550 372L549 370L553 366L556 369L558 368L561 364L560 362L562 363L565 355L564 354zM563 346L563 346z" id="乐山市"/><path class="leaflet-interactive" stroke="#333" stroke-opacity="1" stroke-width="1" stroke-linecap="round" stroke-linejoin="round" stroke-dasharray="1,6" fill="#eee" fill-opacity="0.5" fill-rule="evenodd" d="M654 277L650 267L647 266L648 265L644 265L643 267L641 267L635 260L636 257L634 255L631 257L627 255L627 258L624 261L620 261L620 263L618 263L618 261L615 259L611 266L608 265L605 267L605 269L606 268L608 272L611 271L610 276L614 281L614 285L610 287L616 293L619 307L621 305L624 306L624 304L625 305L628 301L629 302L628 300L630 299L630 297L635 298L639 294L640 296L642 296L645 292L644 290L646 290L646 288L649 287L654 278zM620 305L621 305zM607 266L607 266z" id="南充市"/><path class="leaflet-interactive" stroke="#333" stroke-opacity="1" stroke-width="1" stroke-linecap="round" stroke-linejoin="round" stroke-dasharray="1,6" fill="#eee" fill-opacity="0.5" fill-rule="evenodd" d="M525 346L527 344L531 345L532 343L535 343L535 339L538 336L536 336L536 332L540 332L540 330L542 331L543 328L544 329L547 326L550 329L548 333L549 334L553 334L556 332L557 329L559 329L561 331L560 332L567 337L568 335L570 335L569 334L572 334L575 331L575 328L573 326L574 322L569 316L566 315L565 312L562 315L558 314L556 311L557 310L555 312L552 311L548 314L549 315L543 317L544 318L542 320L541 319L534 322L534 325L532 325L533 326L529 328L532 334L530 336L528 336L527 334L524 335L524 340L521 344L524 346zM543 329L543 330zM557 312L557 312zM574 329L574 329z" id="眉山市"/><path class="leaflet-interactive" stroke="#333" stroke-opacity="1" stroke-width="1" stroke-linecap="round" stroke-linejoin="round" stroke-dasharray="1,6" fill="#eee" fill-opacity="0.5" fill-rule="evenodd" d="M551 378L554 373L555 375L562 375L567 373L569 375L572 374L572 376L571 375L568 378L566 378L567 385L571 385L573 389L571 390L573 392L568 396L575 402L576 401L576 403L587 401L590 395L597 395L600 392L602 392L601 382L598 381L596 375L598 370L596 364L588 359L586 361L582 361L580 355L581 354L579 353L575 355L572 352L566 351L567 352L565 352L562 363L561 362L561 364L559 365L560 366L557 369L553 366L549 370L550 371L546 376L547 375L550 380L551 378z" id="宜宾市"/><path class="leaflet-interactive" stroke="#333" stroke-opacity="1" stroke-width="1" stroke-linecap="round" stroke-linejoin="round" stroke-dasharray="1,6" fill="#eee" fill-opacity="0.5" fill-rule="evenodd" d="M654 321L658 321L664 312L661 307L662 304L658 305L659 306L655 304L654 305L656 301L653 300L651 298L653 298L645 292L642 296L639 295L635 298L631 297L626 305L624 304L624 306L621 307L627 313L628 312L629 315L632 317L633 315L641 312L646 322L652 323L654 321zM662 310L662 310zM663 312L664 311L663 312zM663 311L663 311zM631 316L631 316zM654 321L654 321zM663 312L663 312zM656 305L656 305z" id="广安市"/><path class="leaflet-interactive" stroke="#333" stroke-opacity="1" stroke-width="1" stroke-linecap="round" stroke-linejoin="round" stroke-dasharray="1,6" fill="#eee" fill-opacity="0.5" fill-rule="evenodd" d="M665 311L668 304L669 305L669 303L672 300L669 297L669 295L672 292L675 293L677 291L679 291L681 294L684 293L687 290L685 289L685 287L689 285L687 282L690 279L688 278L693 274L693 268L698 268L698 266L704 261L703 257L698 254L696 250L699 249L698 246L702 246L699 242L704 241L704 239L702 238L698 240L695 238L693 240L689 240L687 243L683 241L679 236L675 243L677 243L680 246L678 248L675 248L673 253L671 254L673 255L671 263L663 270L661 270L659 274L657 272L653 281L648 287L646 287L646 290L644 290L645 293L653 297L653 300L656 301L656 303L654 304L658 306L660 306L658 305L659 304L662 304L660 307L663 312L664 310zM662 308L662 308zM663 312L663 312zM664 310L664 310zM664 311L664 311zM663 311L663 311z" id="达州市"/><path class="leaflet-interactive" stroke="#333" stroke-opacity="1" stroke-width="1" stroke-linecap="round" stroke-linejoin="round" stroke-dasharray="1,6" fill="#eee" fill-opacity="0.5" fill-rule="evenodd" d="M539 320L538 315L536 314L533 316L529 316L528 313L532 305L531 299L528 297L527 298L525 295L522 294L522 289L513 292L509 295L510 298L508 301L508 311L503 321L503 329L505 330L503 338L504 340L501 344L499 341L494 343L492 342L494 345L492 348L498 352L496 354L498 354L502 364L508 366L510 364L509 362L511 357L514 353L518 355L519 352L522 353L524 350L526 350L525 346L521 344L522 341L524 340L525 334L531 336L532 332L529 328L533 326L532 325L534 325L534 322L538 320z" id="雅安市"/><path class="leaflet-interactive" stroke="#333" stroke-opacity="1" stroke-width="1" stroke-linecap="round" stroke-linejoin="round" stroke-dasharray="1,6" fill="#eee" fill-opacity="0.5" fill-rule="evenodd" d="M654 277L657 274L657 272L658 274L660 273L661 270L669 264L671 264L671 260L673 257L673 255L671 254L672 251L674 250L673 249L680 246L677 243L675 243L675 241L678 238L676 233L671 234L668 228L664 231L664 233L662 233L658 229L658 224L655 221L646 221L643 223L645 235L647 237L642 240L640 245L641 246L639 246L640 247L636 252L635 260L642 267L644 266L644 264L648 265L647 266L650 267L653 276L654 275L653 277zM653 276L653 276z" id="巴中市"/><path class="leaflet-interactive" stroke="#333" stroke-opacity="1" stroke-width="1" stroke-linecap="round" stroke-linejoin="round" stroke-dasharray="1,6" fill="#eee" fill-opacity="0.5" fill-rule="evenodd" d="M587 327L589 324L595 330L602 330L605 336L606 334L609 334L609 330L610 331L614 329L613 327L615 323L609 319L610 318L608 318L609 317L604 313L596 312L593 308L593 304L589 303L590 302L588 300L586 302L587 310L585 310L585 313L579 313L578 316L573 318L573 322L577 326L581 326L585 329L584 328L585 329L587 327zM594 309L594 309zM574 318L574 318zM594 309L594 309zM609 317L608 317zM593 308L593 308z" id="资阳市"/><path class="leaflet-interactive" stroke="#333" stroke-opacity="1" stroke-width="1" stroke-linecap="round" stroke-linejoin="round" stroke-dasharray="1,6" fill="#eee" fill-opacity="0.5" fill-rule="evenodd" d="M451 229L447 236L457 250L462 249L462 254L460 254L457 257L458 259L460 258L461 261L464 263L464 268L465 269L469 266L470 271L472 273L475 270L477 271L476 275L476 273L482 272L485 275L487 275L486 276L490 276L491 281L492 280L495 283L499 281L500 282L499 287L501 290L497 291L495 295L495 297L500 302L500 300L502 301L505 297L508 298L511 293L516 292L517 290L520 289L523 290L523 295L529 293L530 294L532 292L535 292L536 294L543 287L546 273L552 270L553 267L556 266L556 262L560 260L561 261L564 257L558 254L556 251L551 251L553 246L552 245L554 243L562 244L566 241L564 237L564 239L561 240L555 236L556 232L553 226L555 224L560 224L563 228L562 231L564 229L562 216L559 218L557 214L558 209L564 212L566 215L570 213L572 210L569 209L571 206L568 199L572 198L569 198L564 192L564 188L560 184L544 184L543 179L540 182L531 179L532 176L530 174L530 170L532 169L528 164L525 164L526 163L524 160L522 160L515 164L515 166L513 166L515 167L515 169L509 169L507 173L499 173L503 179L502 180L505 181L503 183L505 182L504 185L509 189L509 193L507 195L503 195L500 198L500 202L498 200L496 203L492 203L490 207L488 206L489 202L487 202L487 200L490 199L492 193L489 187L489 189L487 189L487 192L483 196L485 202L482 207L478 202L474 203L474 205L471 200L466 202L468 209L466 213L470 217L468 223L465 223L460 226L452 223L453 224L451 228z" id="阿坝藏族羌族自治州"/><path class="leaflet-interactive" stroke="#333" stroke-opacity="1" stroke-width="1" stroke-linecap="round" stroke-linejoin="round" stroke-dasharray="1,6" fill="#eee" fill-opacity="0.5" fill-rule="evenodd" d="M432 394L438 399L439 397L443 397L442 386L447 376L445 371L449 370L447 363L451 360L456 361L457 360L455 359L458 355L460 358L464 355L466 357L468 364L467 369L469 372L468 374L478 374L482 378L481 380L475 378L474 380L476 379L477 386L481 384L483 385L486 379L495 371L493 367L494 364L496 364L496 362L500 358L497 354L497 351L492 348L494 345L492 342L499 342L500 344L504 341L503 339L505 330L503 330L503 321L507 315L508 302L510 296L509 295L509 298L505 297L500 302L495 297L496 291L500 290L499 281L495 284L495 281L490 280L490 276L485 276L482 272L480 274L479 272L476 275L476 270L472 273L470 271L469 266L465 269L464 268L464 264L461 261L461 259L457 258L462 254L462 249L456 249L452 244L453 243L451 240L448 239L449 238L447 234L451 229L443 221L442 222L443 221L438 220L436 226L434 225L434 217L426 209L425 213L424 212L422 214L423 215L421 220L417 219L410 214L407 215L403 209L392 204L389 191L385 187L387 186L378 177L379 171L376 168L372 169L364 164L359 164L358 166L355 167L356 170L354 174L346 176L345 179L347 181L346 186L350 188L351 192L357 195L353 198L352 202L349 205L351 209L344 214L347 221L351 225L353 225L353 227L357 229L358 228L372 235L372 240L379 248L378 253L380 257L383 260L383 262L394 272L390 277L386 274L385 279L391 287L390 290L396 295L395 303L397 309L397 318L400 326L397 335L400 343L399 344L402 361L401 369L404 379L403 382L411 392L410 386L412 383L410 379L414 375L415 371L417 371L417 369L421 366L422 372L429 377L429 380L432 382L431 384L433 384L435 386L434 387L436 388L431 391L431 393z" id="甘孜藏族自治州"/><path class="leaflet-interactive" stroke="#333" stroke-opacity="1" stroke-width="1" stroke-linecap="round" stroke-linejoin="round" stroke-dasharray="1,6" fill="#eee" fill-opacity="0.5" fill-rule="evenodd" d="M546 376L543 375L543 377L540 378L539 382L536 380L536 378L534 378L537 371L535 368L532 367L527 373L525 372L525 364L523 360L525 358L525 352L527 352L527 350L525 350L523 351L523 353L520 352L518 355L514 353L509 361L510 363L508 366L504 365L499 359L496 362L496 364L494 364L493 367L495 371L486 378L486 381L483 385L482 384L478 386L476 380L474 381L475 378L480 380L482 379L481 377L478 374L468 374L468 363L465 355L462 356L460 359L458 355L455 358L457 359L456 361L452 360L448 363L447 362L449 370L445 372L447 373L447 376L442 386L443 397L439 397L438 399L432 394L436 400L435 401L440 403L440 407L444 402L448 404L450 400L452 400L452 405L455 407L455 409L457 409L456 411L465 427L466 426L475 428L475 426L482 421L485 429L488 430L490 428L490 424L492 430L493 429L495 431L499 427L502 430L500 444L498 447L496 443L494 445L496 452L492 454L491 463L489 464L490 468L491 466L498 467L500 464L512 457L515 459L513 461L517 462L519 459L521 459L522 457L524 458L526 456L526 453L528 451L526 445L527 444L522 433L524 429L522 423L524 419L530 419L533 413L535 413L535 411L542 405L544 399L542 398L542 396L540 396L543 391L547 388L551 389L554 386L552 379L548 379L549 378L547 375zM491 444L492 447L492 444z" id="凉山彝族自治州"/></g></svg>